<svg xmlns="http://www.w3.org/2000/svg" viewBox="0 0 653.11 274.41"><defs><style>.cls-1{fill:#00458b;}.cls-2{fill:#6e008b;}.cls-3{fill:#fff;}</style></defs><title>Asset 2</title><g id="Layer_2" data-name="Layer 2"><g id="Layer_1-2" data-name="Layer 1"><path class="cls-1" d="M138.69,223.49h-6.08v-7.8h19.47l21.76,49.52h5.34v8H157.82v-8h6.9c-1.47-2.95-2.54-6-3.69-8.46H132.61c-1,2.38-2.46,5.42-3.78,8.46h6.65v8H114.21v-8h5.34ZM157.58,249c-2.88-6.81-5.75-14-10.43-24.88-4.93,11.17-8.3,18.23-11.17,24.88Z"/><path class="cls-1" d="M208.18,215.69h26.36v33.84c.33,14.62-8.87,24.72-23.9,24.72-14,0-22.75-9.12-22.75-24.23h8.7c0,10.18,4.11,16.1,14,16.1,10.1,0,15.36-6.74,15.36-16.59v-26H208.18Z"/><path class="cls-1" d="M271.5,223.49h-6.07v-7.8h19.46l21.77,49.52H312v8H290.64v-8h6.9c-1.48-2.95-2.54-6-3.7-8.46H265.43c-1,2.38-2.47,5.42-3.78,8.46h6.65v8H247v-8h5.34ZM290.4,249c-2.88-6.81-5.75-14-10.44-24.88-4.92,11.17-8.29,18.23-11.17,24.88Z"/><path class="cls-1" d="M323.58,266.69V255.36h7.8l.41,7.23a27,27,0,0,0,13.55,3.77c7.07,0,15.53-1.89,15.53-9.52.08-7.4-11.25-8.79-15.85-9.37-11.17-1.56-21.52-4.52-21.52-16.84-.25-12.32,12.15-16.09,21.84-16.18,7.64,0,14.05,1.32,20.62,6.66,0,4.35-.08,7.22-.08,11.58h-7.64l-.41-7.8a27,27,0,0,0-12.24-2.8c-6.57,0-13.63,2.63-13.63,8.79,0,5.67,6.16,7.48,14,8.71,12,1.64,23.65,4.35,23.65,17.25-.16,13.79-13.14,17.57-24.31,17.57C336.72,274.41,330.23,272.61,323.58,266.69Z"/><path class="cls-1" d="M394.3,273.18V265.3h7.23v-42H389.45l-.33,8.79h-7.55V215.69H430v16.42h-7.64l-.41-8.79H410.07v42h7.15v7.88Z"/><path class="cls-1" d="M503.62,265.21v8H481.69v-8h6.49V247.47H458.53v17.74H465v8H443.17v-8H450V223.65h-6.9v-8H465v8h-6.49v16.1h29.65v-16.1h-6.49v-8h22v8h-6.81v41.56Z"/><path class="cls-1" d="M539.52,223.49h-6.08v-7.8h19.47l21.76,49.52H580v8H558.65v-8h6.9c-1.47-2.95-2.54-6-3.69-8.46H533.44c-1,2.38-2.46,5.42-3.78,8.46h6.65v8H515v-8h5.34ZM558.41,249c-2.88-6.81-5.75-14-10.43-24.88-4.93,11.17-8.3,18.23-11.17,24.88Z"/><path class="cls-1" d="M591.35,273.18v-7.8h6.57V223.65H591v-8h13.22L638,257V223.65h-6.9v-8h22v8h-6.57v49.53h-5.83l-34.17-41.31v33.51h6.9v7.8Z"/><path class="cls-1" d="M47.23,268.2a2.84,2.84,0,0,0-2.2,2.65c.12.91,1.11,1.47,2.73,1.54H48a7.8,7.8,0,0,0,6-3,.81.81,0,0,0,.14-.72c-2.12-7-6-19.71-7.05-22.91a.79.79,0,0,0-.61-.53l-.73-.13a.79.79,0,0,0-.91.57c-.51,1.92-.94,3.69-1.28,5.26-.89,4.21,5.19,9.48,5.25,9.53a.86.86,0,0,1,.23.33c.47,1.29,1,3.94.16,5.71A3.3,3.3,0,0,1,47.23,268.2Z"/><path class="cls-1" d="M96,226.67a.79.79,0,0,0-1.18.82q.15.81.27,1.68a.83.83,0,0,0,.13.34c3.78,5.57,7.92,10.48,9.85,11.67a.78.78,0,0,0,.41.12.74.74,0,0,0,.36-.09.79.79,0,0,0,.43-.64,6.68,6.68,0,0,0,0-.78C106.05,233.7,99.76,229,96,226.67Z"/><path class="cls-1" d="M96.36,243.26a.8.8,0,0,0-.75-.65.82.82,0,0,0-.79.6,11.16,11.16,0,0,1-2.37,4.7c-1.26,1.59-1.79,2.59,0,8,.53,1,5.08,9.62-.37,13.18a16.3,16.3,0,0,0-1.55,1.12.8.8,0,0,0-.25.84.79.79,0,0,0,.69.54,12.69,12.69,0,0,0,1.31.05,33.11,33.11,0,0,0,3.91-.25.77.77,0,0,0,.69-.73c.23-4.24,1.28-12,1.59-14.33a.72.72,0,0,0-.12-.53,13.84,13.84,0,0,1-1.5-5.44.92.92,0,0,1,0-.16A25.79,25.79,0,0,0,96.36,243.26Z"/><path class="cls-1" d="M4.72,215.46s0-.25.08-.25h.11a7,7,0,0,1,4.54,2.28,10.83,10.83,0,0,1,3.05,8.07c-.12,5.95,2.08,9.29,14,9.55,9.74.2,10.17,7,10.55,13a32.09,32.09,0,0,0,.83,6.4c2.21,7.92-3,14.32-3.2,14.59a.62.62,0,0,1-.3.22c-1.36.56-2.5,1.08-3.39,1.53a.79.79,0,0,0,.34,1.49l1.16,0c1.24,0,2.5-.05,3.3-.08H36c3.25-.13,5.28-9.83,5.14-15a32.39,32.39,0,0,1,.94-6.78l0-.09c1.17-5.39,3-11.43,3.25-12.1a.81.81,0,0,1,1-.52.79.79,0,0,1,.51,1c-.29.93-.69,2.27-1.14,3.83a.82.82,0,0,0,.09.63.79.79,0,0,0,.53.36,51,51,0,0,0,9.2.85,46,46,0,0,0,20.59-4.68.77.77,0,0,0,.37-1c-2.08-5.38-2-9.15.34-11.53a.81.81,0,0,1,1.11,0,.79.79,0,0,1,0,1.11c-4.21,4.33,2.26,15,5.74,20.78,4,6.57-2.36,20.26-2.42,20.4a.8.8,0,0,1-.52.43c-1.06.27-1.88.52-2.52.73a.79.79,0,0,0,.18,1.53c.67.06,1.43.09,2.2.09a16.12,16.12,0,0,0,5.49-.72.81.81,0,0,0,.45-.76c-.22-3.6,3.08-11.93,4.09-14.39a.81.81,0,0,0,0-.53c-1.75-5.72-1-7.07.5-8.95,1.31-1.66,3.1-3.94,2.71-13.57-.57-13.51-5.91-15.76-11.07-17.94A22.14,22.14,0,0,1,77,212.24c-6.4-5.38-10.77-6.25-14.84-3.14s-6.05,2.68-9.42,2.3c-1-.12-2.15-.24-3.53-.32H49c-3.58,0-9.29,4.53-13.93,8.21-3.32,2.63-5.42,4.27-6.79,4.63a6.51,6.51,0,0,1-5.53-1.25,9.63,9.63,0,0,1-3.6-7.59c-.11-5.17-2-7.17-2.18-7.38a.86.86,0,0,1-.26-.72,4.74,4.74,0,0,0-.09-2.79.79.79,0,0,0-1.51.18,10.73,10.73,0,0,0-.11,1.47.77.77,0,0,1-.26.59,1,1,0,0,1-.6.2,3.44,3.44,0,0,0-3.22,1.25A5.3,5.3,0,0,1,7,209.6a8.09,8.09,0,0,1-1.49-.15,7,7,0,0,0-1.34-.14,4.11,4.11,0,0,0-4.06,2.53,1.49,1.49,0,0,0-.13.62.79.79,0,0,0,.51.68.86.86,0,0,1,.49.46,1.69,1.69,0,0,1,.05.71c-.08.4.27.71.66.83A12.15,12.15,0,0,0,4.72,215.46Zm66.84,1.67A1.58,1.58,0,0,1,73.48,216,46.49,46.49,0,0,1,78,217.48a1.57,1.57,0,0,1-.56,3,1.64,1.64,0,0,1-.56-.11,41,41,0,0,0-4.2-1.36A1.57,1.57,0,0,1,71.56,217.13Zm-34.39,5.31a40.56,40.56,0,0,1,31.49-7.16,1.57,1.57,0,0,1,1.26,1.84,1.56,1.56,0,0,1-1.83,1.25,38.13,38.13,0,0,0-28.94,6.5,1.55,1.55,0,0,1-1,.36,1.57,1.57,0,0,1-1-2.79Z"/><rect class="cls-2" width="653" height="186.73"/><path class="cls-3" d="M623.68,134a12.39,12.39,0,0,1-3.43.55c-3.82,0-5.61-1.63-5.61-6.33V92.76c0-18.64-14.86-27.72-32.43-27.72-13.41,0-20.63,1.63-35,7.41l-3.2,18.81,18.64,2L565.33,84c3.82-2,7.61-2.35,12.51-2.35,13.22,0,13.42,10,13.42,18.28v2.71a106,106,0,0,0-13.42-.71c-18.64,0-38,4.7-38,24.81,0,17,13.39,23.38,25.18,23.38,13.22,0,21.54-8,26.25-16.29,1.07,9.95,7,16.29,17.92,16.29a31.26,31.26,0,0,0,14.66-3.82Zm-50.15-.52c-7,0-9.6-4.18-9.6-9.44,0-8.88,7.25-11.23,15.57-11.23a89.08,89.08,0,0,1,11.79,1.08C590.74,127.53,581.86,133.51,573.53,133.51ZM542.15,23.74,506.83,148.36h-23L519.14,23.74Zm-47.44,0L459.39,148.36h-23L471.73,23.74ZM396.63,66.67h24.46V96H396.63Zm0,52.34h24.46v29.35H396.63ZM361,117.93l18.48,1.8-5.06,28.63H303.09l-2.35-12.31,44.93-51.62H320.13L316.51,97.1l-16.85-1.83,2.91-28.63H374.3L376.13,79,330.81,130.6h26.45ZM244,65c-29.35,0-43.85,19.75-43.85,43.65,0,26.09,17.41,41.47,42.58,41.47,26.09,0,44.93-16.49,44.93-42.58C287.65,84.76,273.31,65,244,65Zm-.55,67.19c-12.67,0-19.2-10.87-19.2-25,0-15.41,7.41-24.26,19.39-24.26,11,0,19.92,7.42,19.92,23.9C263.55,122.44,255.58,132.23,243.44,132.23Zm-64.32-1.63H190v17.76H155.74v-46c0-14.14-4.7-19.56-13.94-19.56-11.23,0-15.77,8-15.77,19.39V130.6H136.9v17.76H102.68v-46c0-14.14-4.7-19.56-13.94-19.56-11.23,0-15.77,8-15.77,19.39V130.6H88.55v17.76H38.76V130.6H49.63V84.4H38.76V66.64H73V79C77.87,70.26,86.39,65,97.79,65c11.78,0,22.62,5.61,26.64,17.56C129,71.7,138.21,65,151.07,65c14.66,0,28.08,8.88,28.08,28.24V130.6Z"/></g></g></svg>